<svg width="75" height="20" viewBox="0 0 75 20" fill="none" xmlns="http://www.w3.org/2000/svg">
<path d="M42.7879 12.1564H50.4356C50.3435 12.5795 50.1932 13.0052 49.9832 13.4337L49.9816 13.4369C49.7242 13.9782 49.3801 14.4867 48.9473 14.9626C48.5268 15.4171 47.991 15.7933 47.3336 16.0881L47.3324 16.0886C46.6922 16.3792 45.9957 16.5258 45.2391 16.5258C43.3648 16.5258 41.8748 15.9216 40.7395 14.7273C39.6101 13.5306 39.0352 11.9645 39.0352 10.0005C39.0352 9.04197 39.1976 8.15571 39.5194 7.33879L39.5197 7.33789C39.8436 6.50796 40.2787 5.81922 40.8217 5.26555C41.3682 4.70841 42.0127 4.27043 42.758 3.95158C43.4999 3.63422 44.285 3.47516 45.116 3.47516C46.7208 3.47516 47.9826 3.84779 48.9288 4.56502C49.8736 5.28117 50.5359 6.36516 50.8973 7.84926L50.9743 8.16563L51.2833 8.06298L53.5621 7.30597L53.8255 7.21847L53.7588 6.94909C53.2755 4.99953 52.2867 3.46372 50.7883 2.36021C49.2884 1.24733 47.3827 0.702282 45.0943 0.701802C43.8463 0.67697 42.6552 0.90882 41.5241 1.39759C40.3978 1.87619 39.4243 2.53288 38.607 3.36829L38.6059 3.36942C37.7971 4.20488 37.1569 5.20245 36.6838 6.35816L36.6834 6.3592C36.2168 7.51124 35.9921 8.72585 36.0086 10.0004C35.9921 11.3051 36.2077 12.5425 36.6568 13.7101L36.6578 13.7125C37.1144 14.8693 37.7426 15.8641 38.5443 16.6925L38.5454 16.6936C39.3466 17.5132 40.3042 18.1578 41.4144 18.6283L41.4169 18.6293C42.539 19.0927 43.7243 19.3157 44.9702 19.2991C46.5823 19.2988 47.9632 18.9427 49.0968 18.2136L49.0982 18.2128C49.9532 17.6564 50.6927 16.8957 51.3199 15.9383V18.7549V19.0549H51.6199H53.6154H53.9154V18.7549V9.70743V9.40743H53.6154H42.7879H42.4879V9.70743V11.8564V12.1564H42.7879ZM21.3333 1.41125L21.3326 1.41158C20.2234 1.90704 19.2674 2.57649 18.4677 3.42042L18.4667 3.42152C17.6757 4.26487 17.0524 5.26202 16.5955 6.40936C16.1374 7.55995 15.916 8.75758 15.9315 10C15.916 11.2503 16.1373 12.452 16.5955 13.6028C17.0524 14.7502 17.6757 15.7473 18.4667 16.5907L18.4677 16.5918C19.2674 17.4357 20.2234 18.1051 21.3326 18.6006L21.3351 18.6017C22.4561 19.0904 23.6345 19.3227 24.8671 19.2983C26.0922 19.3227 27.2666 19.0903 28.3874 18.6017L28.3892 18.6009C29.5062 18.1056 30.4664 17.4361 31.2665 16.5918C32.0653 15.7487 32.6965 14.7518 33.1613 13.6045C33.6278 12.4533 33.8533 11.251 33.8377 10C33.8533 8.75688 33.6277 7.55866 33.1613 6.40769C32.6965 5.26042 32.0653 4.26349 31.2665 3.42042C30.4664 2.57611 29.5062 1.90662 28.3892 1.41125C27.268 0.914026 26.0929 0.677304 24.8671 0.701711C23.6337 0.67731 22.4548 0.913905 21.3333 1.41125ZM29.1726 5.26268L29.1741 5.26416C29.7107 5.81717 30.1339 6.50089 30.4405 7.3213L30.4413 7.32354C30.7542 8.14086 30.9123 9.03204 30.9123 9.99998C30.9123 11.2917 30.6413 12.4301 30.1068 13.4229C29.5704 14.4192 28.8445 15.1836 27.9284 15.724C27.0194 16.2567 26.0013 16.525 24.8671 16.525C23.7322 16.525 22.7137 16.2604 21.8045 15.7354C20.8973 15.2035 20.1755 14.4437 19.6391 13.4473C19.1046 12.4545 18.8336 11.3161 18.8336 10.0244C18.8336 8.06087 19.4088 6.49054 20.5397 5.2855C21.6797 4.07901 23.1145 3.47502 24.8671 3.47502C25.7247 3.47502 26.5217 3.63453 27.2613 3.95136C28.0049 4.2699 28.6409 4.70711 29.1726 5.26268ZM3.49978 1.69231V1.39231H3.19978H1H0.7V1.69231V18.3077V18.6077H1H13.4615H13.7615V18.3077V16.2453V15.9453H13.4615H3.49978V1.69231ZM61.7001 1.40953L61.6994 1.40984C60.548 1.90439 59.5549 2.57283 58.7238 3.41619L58.7228 3.41728C57.9006 4.26018 57.2522 5.2574 56.7767 6.40556C56.2998 7.55701 56.0692 8.75598 56.0854 10C56.0692 11.2519 56.2997 12.4549 56.7767 13.6066C57.2522 14.7548 57.9006 15.752 58.7228 16.5949L58.7239 16.596C59.5549 17.4394 60.548 18.1078 61.6994 18.6023L61.7018 18.6034C62.8653 19.0911 64.0878 19.3227 65.3664 19.2983C66.6372 19.3227 67.8556 19.091 69.0189 18.6034L69.0205 18.6026C70.1801 18.1082 71.1775 17.4397 72.0089 16.596C72.8393 15.7534 73.4959 14.7564 73.9797 13.6083C74.4652 12.4562 74.7 11.2526 74.6838 10C74.7 8.75524 74.4651 7.55568 73.9797 6.40385C73.4959 5.25578 72.8393 4.2588 72.0089 3.41619C71.1775 2.57246 70.1801 1.90399 69.0205 1.40953C67.8569 0.913319 66.6379 0.677309 65.3664 0.701716C64.0871 0.677315 62.864 0.913207 61.7001 1.40953ZM69.8569 5.26689L69.8584 5.26834C70.417 5.82189 70.8569 6.50553 71.1753 7.32496L71.1762 7.32725C71.5013 8.14358 71.6654 9.03346 71.6654 9.99998C71.6654 11.2897 71.384 12.4265 70.8286 13.4185C70.2712 14.4142 69.5159 15.1796 68.5607 15.7214C67.6127 16.2556 66.5502 16.525 65.3664 16.525C64.182 16.525 63.1191 16.2594 62.1709 15.733C61.2248 15.1996 60.4738 14.4387 59.9163 13.4429C59.3609 12.451 59.0795 11.3141 59.0795 10.0244C59.0795 8.06393 59.6766 6.49488 60.8536 5.28923C62.0406 4.08162 63.5371 3.47502 65.3664 3.47502C66.2614 3.47502 67.0933 3.63512 67.865 3.95299C68.6406 4.27246 69.3033 4.71073 69.8569 5.26689Z" fill="#FFC405" stroke="#FFC405" stroke-width="0.6"/>
</svg>
